<?xml version="1.0" encoding="UTF-8" standalone="no"?>
<svg width="11px" height="18px" viewBox="0 0 11 18" version="1.1" xmlns="http://www.w3.org/2000/svg" xmlns:xlink="http://www.w3.org/1999/xlink" xmlns:sketch="http://www.bohemiancoding.com/sketch/ns">
    <!-- Generator: Sketch 3.4.2 (15857) - http://www.bohemiancoding.com/sketch -->
    <title>Shape Copy 4</title>
    <desc>Created with Sketch.</desc>
    <defs></defs>
    <g id="Home" stroke="none" stroke-width="1" fill="none" fill-rule="evenodd" sketch:type="MSPage">
        <g sketch:type="MSArtboardGroup" transform="translate(-805.000000, -1768.000000)" id="Shape-Copy-4" fill="#2C98E3">
            <path d="M812.524183,1781.87332 L808.452717,1781.87332 C808.137532,1781.87332 807.881796,1782.12281 807.881796,1782.4302 C807.881796,1782.73782 808.137532,1782.98727 808.452717,1782.98727 L812.524183,1782.98727 C812.839367,1782.98727 813.095382,1782.73782 813.095382,1782.4302 C813.095429,1782.12281 812.83946,1781.87332 812.524183,1781.87332 Z M809.417932,1785.11515 C809.495369,1785.61504 809.933216,1786 810.467742,1786 C811.001711,1786 811.440581,1785.61522 811.517692,1785.11515 C812.216621,1785.07489 812.772063,1784.51465 812.772063,1783.82284 L808.160679,1783.82284 C808.160679,1784.51506 808.717749,1785.0757 809.417932,1785.11515 Z M816,1773.36494 C816,1770.40194 813.537645,1768 810.500325,1768 C807.462401,1768 805,1770.40194 805,1773.36494 C805,1774.61485 805.440729,1775.76258 806.176981,1776.67373 C806.822178,1777.47221 807.433212,1778.34392 807.962765,1779.22111 L807.962765,1781.00316 L813.006651,1781.00316 L813.006651,1779.2684 C813.531324,1778.41524 814.209615,1777.43295 814.822415,1776.67459 C815.559318,1775.76317 816,1774.61567 816,1773.36494 Z" sketch:type="MSShapeGroup"></path>
        </g>
    </g>
</svg>